<svg width="71" height="29" viewBox="0 0 71 29" fill="none" xmlns="http://www.w3.org/2000/svg">
<path d="M0.596 2.168L4.116 0.599998V11.192C5.364 10.008 7.06 9.304 8.916 9.304C12.82 9.304 15.956 12.44 15.956 16.344C15.956 20.216 12.82 23.384 8.916 23.384C7.06 23.384 5.364 22.648 4.116 21.464L2.004 23V4.12C2.004 3.064 1.556 2.232 0.596 2.168ZM4.116 13.56V19.096C4.66 21.4 6.932 22.872 9.204 22.872C9.652 22.872 10.132 22.808 10.58 22.68C13.204 21.976 14.612 18.584 13.684 15.096C12.756 11.576 9.908 9.336 7.284 10.008C5.684 10.424 4.564 11.8 4.116 13.56ZM17.5478 18.68C17.4838 15.224 20.6518 13.592 23.8198 13.592C25.4838 13.592 27.1478 14.04 28.2998 14.936V13.304C28.2358 11 27.3398 10.168 26.0278 10.168C24.5878 10.168 22.6358 11.224 20.7798 12.376L20.5238 10.04C21.6438 9.56 22.8918 9.304 24.1398 9.304C27.3398 9.304 30.4118 11.032 30.4118 14.936V20.28C30.4118 21.368 30.8278 22.456 31.8198 23H28.2998V20.472C27.3718 22.392 25.1638 23.384 22.9878 23.384C20.2678 23.384 17.6118 21.848 17.5478 18.68ZM19.6598 18.392C19.6278 21.56 21.4838 22.872 23.4678 22.872C25.8038 22.872 28.3638 21.08 28.2998 18.328V15.704C27.3078 14.648 25.7718 14.104 24.2998 14.104C21.9638 14.104 19.6918 15.48 19.6598 18.392ZM32.8885 2.168L36.4085 0.599998V20.28C36.4085 21.368 36.8245 22.456 37.7845 23H32.8885C33.8485 22.456 34.2965 21.368 34.2965 20.28V4.12C34.2965 3.064 33.8485 2.232 32.8885 2.168ZM44.0063 23H39.1103C40.0703 22.456 40.5182 21.368 40.5182 20.28V13.208C40.5182 12.12 40.0703 11.288 39.1103 11.224L42.6302 9.656V20.28C42.6302 21.368 43.0463 22.456 44.0063 23ZM40.1983 7.832C39.7183 7.352 39.9423 6.36 40.6783 5.56C41.1583 5.048 41.7663 4.728 42.2783 4.728C42.5343 4.728 42.7583 4.824 42.9183 4.984C43.3983 5.432 43.2063 6.456 42.4383 7.224C41.9263 7.736 41.3183 8.056 40.8063 8.056C40.5823 8.056 40.3583 7.992 40.1983 7.832ZM51.0028 24.376C49.9468 27.416 48.3788 28.536 46.2668 28.536C45.0828 28.536 43.7707 28.184 42.2667 27.672L42.5227 25.336C43.9947 26.36 45.6268 27.16 47.0988 27.16C48.5388 27.16 49.7868 26.392 50.5228 24.248L46.4268 12.376C46.0108 11.192 45.3388 10.2 44.3148 9.656H49.2428C48.4108 10.36 48.4108 11.576 48.7308 12.504L51.6748 20.984L54.6508 12.376C54.9388 11.512 54.9708 10.264 54.1068 9.656H57.3388C56.2828 10.392 55.6108 11.224 55.1628 12.472L51.0028 24.376ZM57.2078 16.344C57.2078 12.44 60.3758 9.304 64.2478 9.304C67.3518 9.304 69.8798 11.448 69.8478 14.392L59.4158 17.272C60.0238 19.96 61.9438 22.36 65.0478 22.456C66.8718 22.52 68.7598 21.624 70.1038 19.736L70.5198 19.928C69.3038 22.008 66.8078 23.384 64.2478 23.384C60.3758 23.384 57.2078 20.216 57.2078 16.344ZM62.5838 10.008C59.8958 10.712 58.8398 13.848 59.3198 16.792L67.8318 14.424C67.8318 11.288 65.8478 9.848 63.7678 9.848C63.3518 9.848 62.9678 9.912 62.5838 10.008Z" fill="#9B2C40"/>
</svg>
