<svg width="8" height="14" viewBox="0 0 8 14" fill="none" xmlns="http://www.w3.org/2000/svg">
<path d="M7.08128 7.33128L0.831276 13.5813C0.742417 13.6641 0.624888 13.7092 0.50345 13.707C0.382012 13.7049 0.266146 13.6557 0.180263 13.5698C0.0943799 13.4839 0.0451844 13.368 0.0430418 13.2466C0.0408991 13.1252 0.0859766 13.0076 0.168777 12.9188L6.08675 7.00003L0.168777 1.08128C0.0859766 0.992417 0.0408991 0.874888 0.0430418 0.753449C0.0451844 0.632011 0.0943799 0.516146 0.180263 0.430262C0.266146 0.344379 0.382012 0.295184 0.50345 0.293042C0.624888 0.290899 0.742417 0.335976 0.831276 0.418776L7.08128 6.66878C7.16906 6.75667 7.21836 6.87581 7.21836 7.00003C7.21836 7.12424 7.16906 7.24338 7.08128 7.33128Z" fill="black"/>
</svg>
