<svg width="21" height="20" viewBox="0 0 21 20" fill="none" xmlns="http://www.w3.org/2000/svg">
<path d="M17.2178 7.83128L10.9678 14.0813C10.8799 14.1691 10.7607 14.2184 10.6365 14.2184C10.5123 14.2184 10.3931 14.1691 10.3053 14.0813L4.05525 7.83128C3.97245 7.74242 3.92737 7.62489 3.92952 7.50345C3.93166 7.38201 3.98085 7.26615 4.06674 7.18026C4.15262 7.09438 4.26849 7.04518 4.38992 7.04304C4.51136 7.0409 4.62889 7.08598 4.71775 7.16878L10.6365 13.0867L16.5552 7.16878C16.6441 7.08598 16.7616 7.0409 16.8831 7.04304C17.0045 7.04518 17.1204 7.09438 17.2063 7.18026C17.2921 7.26615 17.3413 7.38201 17.3435 7.50345C17.3456 7.62489 17.3006 7.74242 17.2178 7.83128Z" fill="#0D1829"/>
</svg>
