<svg width="51" height="50" viewBox="0 0 51 50" fill="none" xmlns="http://www.w3.org/2000/svg">
<rect x="1" y="0.5" width="49" height="49" rx="24.5" fill="white"/>
<rect x="1" y="0.5" width="49" height="49" rx="24.5" stroke="#9B2C40"/>
<path d="M29.102 19.0618C27.5836 18.04 25.8126 17.4998 23.9813 17.4998C18.8689 17.4998 14.7089 21.7056 14.7089 26.8744C14.7089 32.0432 18.8689 36.249 23.9813 36.249C29.0937 36.249 33.2536 32.0432 33.2536 26.8744C33.2536 25.0229 32.7193 23.2322 31.7087 21.6972C31.5661 21.4816 31.624 21.191 31.8373 21.0468C32.0494 20.9027 32.338 20.9613 32.4794 21.1769C33.5921 22.8667 34.1798 24.8365 34.1798 26.8743C34.1798 32.56 29.6038 37.1864 23.9802 37.1864C18.3577 37.1864 13.7817 32.56 13.7817 26.8743C13.7817 21.1886 18.3577 16.5622 23.9813 16.5622C25.9969 16.5622 27.9452 17.1563 29.6154 18.2813C29.8286 18.4242 29.8866 18.716 29.744 18.9316C29.6026 19.1472 29.3141 19.2048 29.102 19.0618ZM28.9757 28.515C29.4045 29.8474 28.9432 31.338 27.7969 32.1839C26.6494 33.0264 25.1044 33.0089 23.9814 32.1827C23.4158 32.5976 22.7459 32.8085 22.0713 32.8085C21.4049 32.8085 20.7373 32.6022 20.167 32.1839C19.0195 31.3367 18.5582 29.8473 18.9871 28.515C17.8628 27.6889 17.3702 26.2089 17.8095 24.845C18.2441 23.4833 19.5028 22.581 20.8938 22.581H20.8973C21.3238 21.2439 22.5617 20.3123 23.9817 20.3123C25.4016 20.3123 26.6394 21.2451 27.066 22.581H27.0695C28.4604 22.581 29.7191 23.4833 30.1539 24.8461C30.5932 26.209 30.1006 27.689 28.9763 28.515L28.9757 28.515ZM29.2712 25.1354C28.9293 24.0655 27.8792 23.3964 26.7712 23.5382C26.5231 23.571 26.3018 23.4034 26.2565 23.1597C26.0525 22.0535 25.0952 21.2508 23.9825 21.2508C22.8686 21.2508 21.9124 22.0535 21.7084 23.1597C21.6632 23.4034 21.4372 23.5722 21.1938 23.5382C21.0941 23.5253 20.9944 23.5194 20.8959 23.5194C19.9026 23.5194 19.0044 24.1627 18.6937 25.1354C18.3483 26.2064 18.8062 27.3759 19.7821 27.9173C19.9977 28.0368 20.0834 28.304 19.9791 28.529C19.5051 29.5438 19.8134 30.7637 20.714 31.4281C21.6122 32.0867 22.8535 32.007 23.6649 31.2359C23.8434 31.066 24.1227 31.066 24.3 31.2359C25.1114 32.0082 26.3527 32.0878 27.2521 31.4281C28.1515 30.7637 28.461 29.545 27.9858 28.5302C27.8815 28.3063 27.9673 28.038 28.1828 27.9185C29.1588 27.3771 29.6177 26.2076 29.2724 25.1377L29.2712 25.1354ZM39.4477 15.368C40.1593 17.1844 40.106 19.8256 36.3043 22.569C36.2857 22.5819 36.266 22.5877 36.2475 22.5983C36.7146 23.9646 36.9626 25.406 36.9626 26.8755C36.9626 34.1127 31.1396 40 23.9813 40C16.823 39.9988 11 34.1115 11 26.8743C11 20.7701 15.1436 15.6259 20.7358 14.1647V12.3437H19.345V13.2811C19.345 13.5401 19.1375 13.7499 18.8814 13.7499C18.6252 13.7499 18.4177 13.5401 18.4177 13.2811V10.4687C18.4177 10.2098 18.6252 10 18.8814 10C19.1375 10 19.345 10.2098 19.345 10.4687V11.4062H20.7358C20.7358 10.6305 21.3594 10 22.1267 10H25.8356C26.6029 10 27.2265 10.6305 27.2265 11.4062H28.6173V10.4687C28.6173 10.2098 28.8248 10 29.081 10C29.3371 10 29.5446 10.2098 29.5446 10.4687V13.2811C29.5446 13.5401 29.3371 13.7499 29.081 13.7499C28.8248 13.7499 28.6173 13.5401 28.6173 13.2811V12.3437H27.2265V14.1729C28.5571 14.5197 29.8309 15.074 30.9969 15.8357C31.2124 15.9764 31.2739 16.2658 31.1348 16.4838C30.9957 16.7017 30.7094 16.7638 30.4938 16.6232C28.5547 15.3565 26.3027 14.6874 23.9812 14.6874C17.3342 14.6874 11.9271 20.1541 11.9271 26.8744C11.9271 33.5947 17.3342 39.0614 23.9812 39.0614C30.6282 39.0614 36.0353 33.5947 36.0353 26.8744C36.0353 24.5272 35.3735 22.2504 34.1205 20.29C33.9815 20.072 34.0429 19.7826 34.2585 19.6419C34.4741 19.5013 34.7603 19.5634 34.8994 19.7814C35.2912 20.3942 35.6215 21.0376 35.9043 21.7008C38.2838 19.9372 39.2447 18.0223 38.7173 16.1195C36.3865 18.073 29.8366 21.6225 29.766 21.66C29.7567 21.6647 29.7463 21.667 29.7359 21.6717C29.7231 21.6776 29.7115 21.6811 29.6988 21.6858C29.6513 21.7022 29.6026 21.7139 29.5539 21.7139C29.5504 21.7139 29.5481 21.7163 29.5446 21.7163C29.5354 21.7163 29.5261 21.7116 29.5168 21.7104C29.4774 21.7081 29.4392 21.701 29.4021 21.6881C29.3801 21.6811 29.3604 21.6717 29.3395 21.6612C29.3105 21.6471 29.285 21.6284 29.2595 21.6073C29.2456 21.5967 29.2294 21.592 29.2178 21.5792C29.0926 21.4526 29.0567 21.2733 29.1042 21.1139C29.1065 21.1057 29.1112 21.0987 29.1146 21.0905C29.1262 21.0565 29.1367 21.0225 29.1564 20.9921C29.387 20.5585 31.4825 16.6386 33.2674 13.8742C33.4285 13.627 33.6255 13.3317 33.8272 13.0422C32.8072 11.9513 32.7887 10.4935 32.7887 10.4701C32.7887 10.2111 32.9961 10.0014 33.2523 10.0014C33.5073 10.0014 33.7147 10.2099 33.7159 10.4689C33.7171 10.5838 33.782 13.1676 36.7792 13.2731L37.0968 12.952C37.2776 12.7692 37.5708 12.7692 37.7528 12.952C37.9336 13.1348 37.9336 13.4313 37.7528 13.6153L36.8244 14.5539C36.734 14.6453 36.6158 14.691 36.4964 14.691C36.3781 14.691 36.2588 14.6453 36.1683 14.5539C36.0582 14.4426 36.0235 14.2903 36.0466 14.1461C35.4474 14.0512 34.9502 13.8719 34.5515 13.6305C34.3672 13.8965 34.1887 14.166 34.0403 14.3922C32.85 16.2355 31.5229 18.5932 30.7138 20.0674C32.9554 18.8077 37.2531 16.3187 38.4851 15.0732C38.8641 14.6923 39.0716 14.1861 39.0728 13.6459C39.0739 13.1045 38.8653 12.5948 38.4851 12.2104C38.1061 11.8272 37.6031 11.6162 37.0676 11.6162H37.0653C36.5321 11.6174 36.0314 11.8272 35.6559 12.2092C35.4774 12.3908 35.1818 12.399 34.9987 12.2198C34.8168 12.0405 34.8063 11.751 34.9813 11.5659C34.9895 11.5577 35.0068 11.5401 35.015 11.5331C35.5493 10.9893 36.2829 10.6811 37.0641 10.6799H37.0688C37.8511 10.6799 38.5871 10.9881 39.1411 11.5483C39.6963 12.1096 40.0012 12.8549 40 13.647C39.9988 14.2763 39.803 14.8739 39.4448 15.3719L39.4477 15.368ZM21.6631 13.963C22.2682 13.8517 22.8871 13.7837 23.5176 13.7615V12.8123C23.5176 12.5533 23.7251 12.3435 23.9812 12.3435C24.2374 12.3435 24.4448 12.5533 24.4448 12.8123V13.7661C25.0707 13.7884 25.6897 13.8564 26.2993 13.9677V11.4061C26.2993 11.1471 26.0918 10.9373 25.8357 10.9373H22.1268C21.8706 10.9373 21.6631 11.1471 21.6631 11.4061V13.963ZM26.7631 26.8742C26.7631 28.4246 25.5148 29.6866 23.9814 29.6866C22.4479 29.6866 21.1997 28.4246 21.1997 26.8742C21.1997 25.3239 22.4479 24.0618 23.9814 24.0618C25.5148 24.0618 26.7631 25.3239 26.7631 26.8742ZM25.8358 26.8742C25.8358 25.8407 25.0036 24.9993 23.9814 24.9993C22.9591 24.9993 22.1269 25.8407 22.1269 26.8742C22.1269 27.9078 22.9591 28.7492 23.9814 28.7492C25.0036 28.7492 25.8358 27.9078 25.8358 26.8742Z" fill="#9B2C40"/>
</svg>
