<svg width="51" height="50" viewBox="0 0 51 50" fill="none" xmlns="http://www.w3.org/2000/svg">
<rect x="1" y="0.5" width="49" height="49" rx="24.5" fill="white"/>
<rect x="1" y="0.5" width="49" height="49" rx="24.5" stroke="#9B2C40"/>
<path d="M16.7864 32.8468C16.7524 32.5901 16.5192 32.4073 16.2614 32.4424C14.9934 32.6077 13.7149 32.828 12.4424 33.094L16.9202 28.6162C17.103 28.4334 17.103 28.1369 16.9202 27.9529C16.7374 27.7701 16.4409 27.7701 16.2569 27.9529L11.7779 32.4319C12.3381 29.7448 12.6802 27.0178 12.7962 24.3025L16.3527 20.746C16.5356 20.5632 16.5356 20.2667 16.3527 20.0828C16.1699 19.9 15.8734 19.9 15.6895 20.0828L12.8348 22.9375C12.8383 22.6843 12.8418 22.4335 12.8418 22.1863C12.8418 20.1812 12.7164 18.1762 12.475 16.1839L16.6855 11.977C18.6777 12.2184 20.6827 12.3438 22.6879 12.3438C22.9492 12.3438 23.193 12.3403 23.4379 12.3368L20.5844 15.1903C20.4016 15.3731 20.4016 15.6696 20.5844 15.8535C20.6758 15.945 20.7953 15.9907 20.9161 15.9907C21.0356 15.9907 21.1563 15.945 21.2477 15.8535L24.8042 12.297C27.5359 12.181 30.2615 11.84 32.9324 11.281L28.4546 15.7588C28.2718 15.9416 28.2718 16.2381 28.4546 16.4221C28.546 16.5135 28.6655 16.5592 28.7863 16.5592C28.9058 16.5592 29.0265 16.5135 29.1179 16.4221L33.5957 11.9443C33.3344 13.1982 33.1152 14.4767 32.9476 15.7633C32.9137 16.0199 33.0953 16.2555 33.352 16.2883C33.6098 16.3223 33.8441 16.1406 33.877 15.884C34.1113 14.084 34.4418 12.3005 34.8613 10.5812C34.9 10.4218 34.8531 10.2543 34.7371 10.1382C34.6211 10.0222 34.4523 9.9765 34.2953 10.014C31.1243 10.7863 27.8558 11.2433 24.5804 11.3698C23.9897 11.3945 23.371 11.4073 22.6878 11.4073C18.7842 11.4062 14.8785 10.9374 11.0805 10.0128C10.9223 9.97533 10.7536 10.021 10.6387 10.137C10.5215 10.2531 10.4758 10.4206 10.5133 10.58C11.4379 14.378 11.9067 18.284 11.9067 22.1873C11.9067 22.7943 11.8938 23.4131 11.8692 24.0822C11.7438 27.3318 11.2879 30.6003 10.5133 33.7959C10.4746 33.9553 10.5215 34.1229 10.6375 34.2378C10.7266 34.3268 10.8461 34.3749 10.9692 34.3749C11.0067 34.3749 11.043 34.3702 11.0805 34.362C12.836 33.9354 14.6208 33.6026 16.3833 33.3729C16.6399 33.3389 16.8204 33.1045 16.7876 32.8479L16.7864 32.8468ZM15.5149 11.8234L12.3238 15.0145C12.1339 13.7008 11.8937 12.3941 11.5995 11.0992C12.8945 11.3933 14.2011 11.6335 15.5149 11.8234ZM40.4875 39.4198C39.5629 35.6254 39.0941 31.7194 39.0941 27.8125C39.0941 23.9065 39.5629 20.0008 40.4875 16.2052C40.5261 16.0458 40.4793 15.8782 40.3633 15.7633C40.2472 15.6473 40.0785 15.6005 39.9214 15.6391C32.3335 17.4872 24.3004 17.4884 16.7053 15.6391C16.5471 15.6005 16.3784 15.6473 16.2635 15.7633C16.1475 15.8794 16.1006 16.0469 16.1393 16.2052C17.0639 19.9996 17.5327 23.9056 17.5327 27.8125C17.5327 31.7185 17.0639 35.6242 16.1393 39.4198C16.1006 39.5791 16.1475 39.7467 16.2635 39.8616C16.3784 39.9764 16.5471 40.0221 16.7053 39.9858C20.6557 39.0225 24.7327 38.5584 28.7779 38.5924C32.5267 38.6276 36.2755 39.0963 39.9214 39.9858C39.9589 39.994 39.9953 39.9987 40.0328 39.9987C40.1558 39.9987 40.2753 39.9506 40.3644 39.8616C40.4804 39.7455 40.5273 39.578 40.4886 39.4198H40.4875ZM28.7863 37.6561C24.8944 37.6209 21.0169 38.0381 17.2246 38.9006C18.0507 35.2655 18.4691 31.5389 18.4691 27.8123C18.4691 24.0833 18.0507 20.3567 17.2246 16.724C24.4972 18.3775 32.1367 18.3763 39.4024 16.724C38.5762 20.3591 38.1579 24.0857 38.1579 27.8123C38.1579 31.5413 38.5762 35.2667 39.4024 38.9006C35.9209 38.1073 32.3536 37.6889 28.7863 37.6561ZM24.094 21.2497C24.094 21.5087 23.8842 21.7184 23.6252 21.7184H22.6877V22.6559C22.6877 22.9149 22.478 23.1247 22.219 23.1247C21.96 23.1247 21.7502 22.9149 21.7502 22.6559V21.7184H20.8127C20.5537 21.7184 20.344 21.5087 20.344 21.2497C20.344 20.9907 20.5537 20.7809 20.8127 20.7809H21.7502V19.8434C21.7502 19.5845 21.96 19.3747 22.219 19.3747C22.478 19.3747 22.6877 19.5845 22.6877 19.8434V20.7809H23.6252C23.8842 20.7809 24.094 20.9907 24.094 21.2497ZM30.1876 21.2497C30.1876 21.5087 29.9778 21.7184 29.7188 21.7184H28.7813V22.6559C28.7813 22.9149 28.5716 23.1247 28.3126 23.1247C28.0536 23.1247 27.8438 22.9149 27.8438 22.6559V21.7184H26.9063C26.6473 21.7184 26.4376 21.5087 26.4376 21.2497C26.4376 20.9907 26.6473 20.7809 26.9063 20.7809H27.8438V19.8434C27.8438 19.5845 28.0536 19.3747 28.3126 19.3747C28.5716 19.3747 28.7813 19.5845 28.7813 19.8434V20.7809H29.7188C29.9778 20.7809 30.1876 20.9907 30.1876 21.2497ZM36.2812 21.2497C36.2812 21.5087 36.0714 21.7184 35.8124 21.7184H34.8749V22.6559C34.8749 22.9149 34.6652 23.1247 34.4062 23.1247C34.1472 23.1247 33.9374 22.9149 33.9374 22.6559V21.7184H32.9999C32.7409 21.7184 32.5312 21.5087 32.5312 21.2497C32.5312 20.9907 32.7409 20.7809 32.9999 20.7809H33.9374V19.8434C33.9374 19.5845 34.1472 19.3747 34.4062 19.3747C34.6652 19.3747 34.8749 19.5845 34.8749 19.8434V20.7809H35.8124C36.0714 20.7809 36.2812 20.9907 36.2812 21.2497ZM24.0937 27.8122C24.0937 28.0712 23.8839 28.2809 23.6249 28.2809H22.6874V29.2184C22.6874 29.4774 22.4777 29.6872 22.2187 29.6872C21.9597 29.6872 21.7499 29.4774 21.7499 29.2184V28.2809H20.8124C20.5534 28.2809 20.3437 28.0712 20.3437 27.8122C20.3437 27.5532 20.5534 27.3434 20.8124 27.3434H21.7499V26.4059C21.7499 26.147 21.9597 25.9372 22.2187 25.9372C22.4777 25.9372 22.6874 26.147 22.6874 26.4059V27.3434H23.6249C23.8839 27.3434 24.0937 27.5532 24.0937 27.8122ZM30.1873 27.8122C30.1873 28.0712 29.9775 28.2809 29.7185 28.2809H28.781V29.2184C28.781 29.4774 28.5713 29.6872 28.3123 29.6872C28.0533 29.6872 27.8435 29.4774 27.8435 29.2184V28.2809H26.906C26.647 28.2809 26.4373 28.0712 26.4373 27.8122C26.4373 27.5532 26.647 27.3434 26.906 27.3434H27.8435V26.4059C27.8435 26.147 28.0533 25.9372 28.3123 25.9372C28.5713 25.9372 28.781 26.147 28.781 26.4059V27.3434H29.7185C29.9775 27.3434 30.1873 27.5532 30.1873 27.8122ZM36.2809 27.8122C36.2809 28.0712 36.0711 28.2809 35.8121 28.2809H34.8746V29.2184C34.8746 29.4774 34.6649 29.6872 34.4059 29.6872C34.1469 29.6872 33.9371 29.4774 33.9371 29.2184V28.2809H32.9996C32.7406 28.2809 32.5309 28.0712 32.5309 27.8122C32.5309 27.5532 32.7406 27.3434 32.9996 27.3434H33.9371V26.4059C33.9371 26.147 34.1469 25.9372 34.4059 25.9372C34.6649 25.9372 34.8746 26.147 34.8746 26.4059V27.3434H35.8121C36.0711 27.3434 36.2809 27.5532 36.2809 27.8122ZM24.0934 34.3747C24.0934 34.6337 23.8836 34.8434 23.6246 34.8434H22.6871V35.7809C22.6871 36.0399 22.4774 36.2497 22.2184 36.2497C21.9594 36.2497 21.7496 36.0399 21.7496 35.7809V34.8434H20.8121C20.5531 34.8434 20.3434 34.6337 20.3434 34.3747C20.3434 34.1157 20.5531 33.9059 20.8121 33.9059H21.7496V32.9684C21.7496 32.7095 21.9594 32.4997 22.2184 32.4997C22.4774 32.4997 22.6871 32.7095 22.6871 32.9684V33.9059H23.6246C23.8836 33.9059 24.0934 34.1157 24.0934 34.3747ZM30.187 34.3747C30.187 34.6337 29.9772 34.8434 29.7182 34.8434H28.7807V35.7809C28.7807 36.0399 28.571 36.2497 28.312 36.2497C28.053 36.2497 27.8432 36.0399 27.8432 35.7809V34.8434H26.9057C26.6467 34.8434 26.437 34.6337 26.437 34.3747C26.437 34.1157 26.6467 33.9059 26.9057 33.9059H27.8432V32.9684C27.8432 32.7095 28.053 32.4997 28.312 32.4997C28.571 32.4997 28.7807 32.7095 28.7807 32.9684V33.9059H29.7182C29.9772 33.9059 30.187 34.1157 30.187 34.3747ZM36.2806 34.3747C36.2806 34.6337 36.0708 34.8434 35.8118 34.8434H34.8743V35.7809C34.8743 36.0399 34.6646 36.2497 34.4056 36.2497C34.1466 36.2497 33.9368 36.0399 33.9368 35.7809V34.8434H32.9993C32.7403 34.8434 32.5306 34.6337 32.5306 34.3747C32.5306 34.1157 32.7403 33.9059 32.9993 33.9059H33.9368V32.9684C33.9368 32.7095 34.1466 32.4997 34.4056 32.4997C34.6646 32.4997 34.8743 32.7095 34.8743 32.9684V33.9059H35.8118C36.0708 33.9059 36.2806 34.1157 36.2806 34.3747Z" fill="#9B2C40"/>
</svg>
