<svg width="41" height="32" viewBox="0 0 41 32" fill="none" xmlns="http://www.w3.org/2000/svg">
<path d="M31.5024 3.31445L20.6167 11.8099L9.48218 3.31445V3.31675L9.49563 3.32823V15.2242L20.4912 23.9033L31.5024 15.5594V3.31445Z" fill="#EA4335"/>
<path d="M34.3609 1.24745L31.5022 3.31392V15.5589L40.4977 8.65228V4.4918C40.4977 4.4918 39.4058 -1.45043 34.3609 1.24745Z" fill="#FBBC05"/>
<path d="M31.5022 15.5579V31.4399H38.3968C38.3968 31.4399 40.3587 31.2378 40.5 29.0014V8.65137L31.5022 15.5579Z" fill="#34A853"/>
<path d="M9.49614 31.4543V15.2234L9.48218 15.2119L9.49614 31.4543Z" fill="#C5221F"/>
<path d="M9.48209 3.31631L6.63903 1.26133C1.59417 -1.43655 0.5 4.50338 0.5 4.50338V8.66386L9.48209 15.2123V3.31631Z" fill="#C5221F"/>
<path d="M9.48218 3.31641V15.2123L9.49614 15.2238V3.32789L9.48218 3.31641Z" fill="#C5221F"/>
<path d="M0.5 8.66602V29.0161C0.639014 31.2548 2.60314 31.4545 2.60314 31.4545H9.49778L9.48209 15.2121L0.5 8.66602Z" fill="#4285F4"/>
</svg>
