<svg width="51" height="50" viewBox="0 0 51 50" fill="none" xmlns="http://www.w3.org/2000/svg">
<rect x="1" y="0.5" width="49" height="49" rx="24.5" fill="white"/>
<rect x="1" y="0.5" width="49" height="49" rx="24.5" stroke="#9B2C40"/>
<path d="M19.3152 29.3655C17.9966 28.462 15.9296 29.1066 14.7095 30.7976C14.1344 31.5944 13.8252 32.5097 13.8397 33.3733C13.8541 34.2933 14.2283 35.0491 14.8912 35.5026C15.2967 35.7804 15.772 35.9116 16.2725 35.9116C17.4011 35.9116 18.6524 35.2425 19.497 34.0706C20.0722 33.2738 20.3814 32.3585 20.3669 31.4949C20.3525 30.5749 19.9794 29.8191 19.3152 29.3655ZM18.71 33.5316C17.8101 34.7785 16.3146 35.3305 15.4445 34.7352C15.0403 34.4586 14.8116 33.9699 14.802 33.3582C14.7912 32.6914 15.0379 31.9731 15.4975 31.3356C16.1508 30.4309 17.1169 29.8918 17.9303 29.8918C18.2383 29.8918 18.5246 29.9691 18.7628 30.132C19.1671 30.4086 19.3957 30.8973 19.4053 31.509C19.4161 32.177 19.1697 32.8941 18.71 33.5316ZM38.614 29.2026C36.4784 26.2425 32.621 25.2828 30.0187 27.0628C29.482 27.4261 29.0224 27.8972 28.6639 28.4491L27.8554 27.33C27.8566 27.323 27.8566 27.3147 27.8578 27.3077L32.8919 20.321C33.4105 19.605 33.6102 18.7343 33.455 17.8706C33.2998 17.0081 32.8089 16.2546 32.0737 15.7495C31.9691 15.678 31.8391 15.6499 31.714 15.671C31.5876 15.6921 31.4757 15.7612 31.4024 15.8632L25.4972 24.058L19.5908 15.8632C19.5174 15.7612 19.4055 15.6921 19.2792 15.671C19.1528 15.6499 19.0241 15.678 18.9194 15.7495C18.1831 16.2546 17.6922 17.0081 17.5382 17.8706C17.383 18.7343 17.5827 19.605 18.1012 20.321L23.1366 27.3089C23.1378 27.3159 23.1378 27.3242 23.139 27.3312L22.3305 28.4503C21.9719 27.8996 21.5123 27.4285 20.9769 27.0652C18.3721 25.2839 14.5149 26.2449 12.3803 29.205C10.2459 32.1663 10.6297 36.0264 13.2346 37.8078C14.1225 38.4137 15.156 38.702 16.2172 38.702C18.271 38.702 20.4296 37.6203 21.8372 35.6681L25.4997 30.5858L29.1635 35.6693C30.5712 37.6216 32.7284 38.7032 34.7835 38.7032C35.8447 38.7032 36.877 38.4149 37.7661 37.8078C40.371 36.0266 40.7536 32.1663 38.6192 29.205L38.614 29.2026ZM24.0509 26.8753C24.0509 26.0995 24.6983 25.4691 25.4947 25.4691C26.2912 25.4691 26.9385 26.0995 26.9385 26.8753C26.9385 27.6511 26.2912 28.2816 25.4947 28.2816C24.6983 28.2816 24.0509 27.6511 24.0509 26.8753ZM31.8837 16.8229C32.2061 17.1546 32.4227 17.5717 32.5057 18.0311C32.6164 18.6475 32.4732 19.2686 32.1038 19.7807L27.6845 25.9142C27.4078 25.3189 26.882 24.8619 26.2371 24.6568L31.8837 16.8229ZM18.484 18.0311C18.567 17.5717 18.7823 17.1545 19.106 16.8229L24.7512 24.6568C24.1075 24.8619 23.5817 25.3177 23.305 25.9131L18.8857 19.7796C18.5163 19.2686 18.3731 18.6475 18.4838 18.03L18.484 18.0311ZM21.0443 35.1275C19.2143 37.6658 15.956 38.5223 13.7833 37.0388C11.6127 35.5541 11.3348 32.2811 13.1636 29.7416C14.9937 27.2034 18.2483 26.3456 20.421 27.8315C21.0274 28.244 21.5147 28.8299 21.8287 29.5283C21.8985 29.683 22.0477 29.7896 22.2209 29.8072C22.3966 29.8213 22.5626 29.7486 22.6625 29.6104L23.6033 28.3084C23.7862 28.5369 24.0088 28.7303 24.2651 28.8803L24.9052 29.7685L21.043 35.1286L21.0443 35.1275ZM37.2065 37.0377C35.0336 38.5224 31.7754 37.6646 29.9455 35.1275L25.6743 29.2013C26.3697 29.1497 26.9786 28.8146 27.384 28.3083L28.3249 29.6103C28.4248 29.7485 28.5908 29.8212 28.7665 29.8071C28.9397 29.7907 29.0889 29.6841 29.1587 29.5282C29.4727 28.8298 29.96 28.2427 30.5676 27.8302C32.7381 26.3454 35.9926 27.2032 37.824 29.7403C39.6528 32.2798 39.3749 35.5528 37.2056 37.0375L37.2065 37.0377ZM31.6744 29.3654C31.0102 29.819 30.6372 30.5748 30.6228 31.4948C30.6095 32.3584 30.9188 33.2737 31.4927 34.0705C32.3373 35.2436 33.5898 35.9115 34.7172 35.9115C35.2177 35.9115 35.693 35.7803 36.0985 35.5026C36.7626 35.049 37.1356 34.2932 37.15 33.3732C37.1633 32.5096 36.8541 31.5943 36.2802 30.7975C35.0602 29.1041 32.993 28.4619 31.6744 29.3654ZM35.5461 34.7349C34.675 35.3302 33.1806 34.7794 32.2805 33.5313C31.8209 32.8938 31.5743 32.1755 31.5851 31.5087C31.5947 30.897 31.8221 30.4083 32.2276 30.1317C32.467 29.9689 32.7521 29.8915 33.0602 29.8915C33.8735 29.8915 34.8396 30.4306 35.493 31.3353C35.9526 31.9728 36.1992 32.6911 36.1884 33.3579C36.1788 33.9696 35.9503 34.4583 35.5461 34.7349ZM25.0136 12.3438V10.4688C25.0136 10.2098 25.229 10 25.4949 10C25.7608 10 25.9762 10.2098 25.9762 10.4688V12.3438C25.9762 12.6027 25.7608 12.8125 25.4949 12.8125C25.229 12.8125 25.0136 12.6027 25.0136 12.3438ZM25.0136 17.0313V15.1562C25.0136 14.8973 25.229 14.6875 25.4949 14.6875C25.7608 14.6875 25.9762 14.8973 25.9762 15.1562V17.0313C25.9762 17.2902 25.7608 17.5 25.4949 17.5C25.229 17.5 25.0136 17.2902 25.0136 17.0313ZM25.0136 21.7188V19.8438C25.0136 19.5848 25.229 19.375 25.4949 19.375C25.7608 19.375 25.9762 19.5848 25.9762 19.8438V21.7188C25.9762 21.9777 25.7608 22.1875 25.4949 22.1875C25.229 22.1875 25.0136 21.9777 25.0136 21.7188ZM25.9762 32.9688V34.8438C25.9762 35.1027 25.7608 35.3125 25.4949 35.3125C25.229 35.3125 25.0136 35.1027 25.0136 34.8438V32.9688C25.0136 32.7098 25.229 32.5 25.4949 32.5C25.7608 32.5 25.9762 32.7098 25.9762 32.9688ZM25.9762 37.6563V39.5313C25.9762 39.7902 25.7608 40 25.4949 40C25.229 40 25.0136 39.7902 25.0136 39.5313V37.6563C25.0136 37.3973 25.229 37.1875 25.4949 37.1875C25.7608 37.1875 25.9762 37.3973 25.9762 37.6563Z" fill="#9B2C40"/>
</svg>
