<svg width="41" height="40" viewBox="0 0 41 40" fill="none" xmlns="http://www.w3.org/2000/svg">
<g clip-path="url(#clip0_170_409)">
<rect x="13" y="2.5" width="25" height="35" rx="1.33333" fill="#1066B5"/>
<rect x="13" y="2.5" width="25" height="35" rx="1.33333" fill="url(#paint0_linear_170_409)"/>
<rect x="13" y="6.25" width="12.5" height="12.5" fill="#32A9E7"/>
<rect x="13" y="18.75" width="12.5" height="12.5" fill="#167EB4"/>
<rect x="25.5" y="18.75" width="12.5" height="12.5" fill="#32A9E7"/>
<rect x="25.5" y="6.25" width="12.5" height="12.5" fill="#58D9FD"/>
<mask id="mask0_170_409" style="mask-type:alpha" maskUnits="userSpaceOnUse" x="10" y="17" width="31" height="21">
<path d="M10.5 17.5H39.1667C39.903 17.5 40.5 18.097 40.5 18.8333V36.1667C40.5 36.903 39.903 37.5 39.1667 37.5H11.8333C11.097 37.5 10.5 36.903 10.5 36.1667V17.5Z" fill="url(#paint1_linear_170_409)"/>
</mask>
<g mask="url(#mask0_170_409)">
<path d="M40.5 17.5V22.5H38V17.5H40.5Z" fill="#135298"/>
<path d="M40.5 37.5V20L9.25 37.5H40.5Z" fill="url(#paint2_linear_170_409)"/>
<path d="M10.5 37.5V20L41.75 37.5H10.5Z" fill="url(#paint3_linear_170_409)"/>
</g>
<path d="M10.5 13.25C10.5 12.1454 11.3954 11.25 12.5 11.25H23.5C24.6046 11.25 25.5 12.1454 25.5 13.25V31.75C25.5 32.8546 24.6046 33.75 23.5 33.75H10.5V13.25Z" fill="black" fill-opacity="0.3"/>
<rect x="0.5" y="8.75" width="22.5" height="22.5" rx="1.33333" fill="url(#paint4_linear_170_409)"/>
<path d="M18 20.0866V19.8788C18 16.2777 15.409 13.75 11.7698 13.75C8.11076 13.75 5.5 16.295 5.5 19.9134V20.1212C5.5 23.7223 8.09098 26.25 11.75 26.25C15.3892 26.25 18 23.705 18 20.0866ZM15.053 20.1212C15.053 22.5104 13.7081 23.9474 11.7698 23.9474C9.83149 23.9474 8.46677 22.4758 8.46677 20.0866V19.8788C8.46677 17.4896 9.81171 16.0526 11.75 16.0526C13.6685 16.0526 15.053 17.5242 15.053 19.9134V20.1212Z" fill="white"/>
</g>
<defs>
<linearGradient id="paint0_linear_170_409" x1="13" y1="20" x2="38" y2="20" gradientUnits="userSpaceOnUse">
<stop stop-color="#064484"/>
<stop offset="1" stop-color="#0F65B5"/>
</linearGradient>
<linearGradient id="paint1_linear_170_409" x1="10.5" y1="33.4615" x2="40.5" y2="33.4615" gradientUnits="userSpaceOnUse">
<stop stop-color="#1B366F"/>
<stop offset="1" stop-color="#2657B0"/>
</linearGradient>
<linearGradient id="paint2_linear_170_409" x1="40.5" y1="28.75" x2="10.5" y2="28.75" gradientUnits="userSpaceOnUse">
<stop stop-color="#44DCFD"/>
<stop offset="0.453125" stop-color="#259ED0"/>
</linearGradient>
<linearGradient id="paint3_linear_170_409" x1="10.5" y1="28.75" x2="40.5" y2="28.75" gradientUnits="userSpaceOnUse">
<stop stop-color="#259ED0"/>
<stop offset="1" stop-color="#44DCFD"/>
</linearGradient>
<linearGradient id="paint4_linear_170_409" x1="0.5" y1="20" x2="23" y2="20" gradientUnits="userSpaceOnUse">
<stop stop-color="#064484"/>
<stop offset="1" stop-color="#0F65B5"/>
</linearGradient>
<clipPath id="clip0_170_409">
<rect width="40" height="40" fill="white" transform="translate(0.5)"/>
</clipPath>
</defs>
</svg>
